<svg width="125" height="109" viewBox="0 0 125 109" fill="none" xmlns="http://www.w3.org/2000/svg">
<circle cx="25" cy="26" r="25" fill="#FFD042"/>
<path d="M59.5 6.20877e-06C68.1195 5.832e-06 76.386 3.4241 82.481 9.51903C88.5759 15.614 92 23.8805 92 32.5C92 41.1195 88.5759 49.386 82.481 55.481C76.386 61.5759 68.1195 65 59.5 65L59.5 32.5L59.5 6.20877e-06Z" fill="#FE8058"/>
<path d="M125 76.5C125 85.1195 121.576 93.386 115.481 99.481C109.386 105.576 101.12 109 92.5 109C83.8805 109 75.614 105.576 69.519 99.481C63.4241 93.386 60 85.1195 60 76.5L92.5 76.5H125Z" fill="#BAD0E5"/>
</svg>
